<svg width="32" height="32" viewBox="0 0 32 32" fill="none" xmlns="http://www.w3.org/2000/svg">
  <rect width="32" height="32" rx="6" fill="white"/>
  <path d="M16 6C13.5 6 11 7.5 11 10C11 12.5 13.5 14 16 14C18.5 14 21 12.5 21 10C21 7.5 18.5 6 16 6Z" fill="url(#gradient1)"/>
  <path d="M16 14C12 14 8 15.5 8 19V22C8 24 9.5 26 11.5 26H20.5C22.5 26 24 24 24 22V19C24 15.5 20 14 16 14Z" fill="url(#gradient2)"/>
  <defs>
    <linearGradient id="gradient1" x1="11" y1="6" x2="21" y2="14" gradientUnits="userSpaceOnUse">
      <stop offset="0%" stop-color="#ff69b4"/>
      <stop offset="100%" stop-color="#ff85c1"/>
    </linearGradient>
    <linearGradient id="gradient2" x1="8" y1="14" x2="24" y2="26" gradientUnits="userSpaceOnUse">
      <stop offset="0%" stop-color="#667eea"/>
      <stop offset="100%" stop-color="#764ba2"/>
    </linearGradient>
  </defs>
</svg>


